<svg width="18" height="18" viewBox="0 0 18 18" fill="none" xmlns="http://www.w3.org/2000/svg">
<path fill-rule="evenodd" clip-rule="evenodd" d="M8.99964 0.399994C5.57548 0.399994 2.79964 3.17583 2.79964 6.59999V7.16328C2.79964 7.72081 2.63461 8.26588 2.32534 8.72977L1.40646 10.1081C0.339984 11.7078 1.15415 13.8822 3.00902 14.3881C3.61351 14.553 4.22311 14.6924 4.83623 14.8065L4.83775 14.8106C5.45295 16.4521 7.0972 17.6 8.99959 17.6C10.902 17.6 12.5462 16.4521 13.1614 14.8106L13.1629 14.8065C13.7761 14.6924 14.3857 14.553 14.9903 14.3881C16.8451 13.8822 17.6593 11.7078 16.5928 10.1081L15.6739 8.72978C15.3647 8.26588 15.1996 7.72081 15.1996 7.16328V6.59999C15.1996 3.17583 12.4238 0.399994 8.99964 0.399994ZM11.7008 15.0296C9.90641 15.244 8.09276 15.2439 6.2984 15.0296C6.86716 15.8468 7.85642 16.4 8.99959 16.4C10.1428 16.4 11.132 15.8468 11.7008 15.0296ZM3.99964 6.59999C3.99964 3.83857 6.23822 1.59999 8.99964 1.59999C11.7611 1.59999 13.9996 3.83857 13.9996 6.59999V7.16328C13.9996 7.95772 14.2348 8.7344 14.6755 9.39542L15.5944 10.7737C16.2065 11.6919 15.7392 12.94 14.6745 13.2304C10.9591 14.2437 7.04017 14.2437 3.32476 13.2304C2.2601 12.94 1.79278 11.6919 2.40492 10.7737L3.3238 9.39542C3.76448 8.7344 3.99964 7.95772 3.99964 7.16328V6.59999Z" fill="#1E1E1E"/>
</svg>
