<svg width="246" height="23" viewBox="0 0 246 23" fill="none" xmlns="http://www.w3.org/2000/svg">
<g id="Underline_10">
<g id="Group">
<path id="Vector" fill-rule="evenodd" clip-rule="evenodd" d="M147.223 10.1122C114.485 10.5055 81.7307 12.0654 49.1351 14.8538C33.6381 16.1797 15.6415 16.014 0.611313 20.5345C-0.1376 20.762 0.0050277 21.4444 0.021238 21.5127C0.0536585 21.6524 0.189859 22.1171 0.786397 22.1399C0.851238 22.1431 1.30834 22.0781 1.48341 22.0554C5.92177 21.4704 10.3439 20.788 14.7855 20.2355C30.1204 18.3214 45.5007 16.8752 60.9037 15.6078C81.3481 13.9243 101.968 13.0273 122.467 12.3254C133.688 11.9419 145.178 12.4521 156.434 11.6592C160.568 11.6364 164.701 11.6332 168.835 11.6462C186.115 11.708 203.376 12.3644 220.627 13.2646C226.174 13.5539 230.405 13.8659 235.835 14.0771C237.897 14.1583 241.168 14.2136 243.444 14.2493C243.778 14.2558 244.631 14.2623 244.984 14.2655C245.02 14.272 245.055 14.272 245.094 14.272C245.231 14.272 245.295 14.2623 245.308 14.2623C246.08 14.1485 246.009 13.4173 245.989 13.3068C245.986 13.2841 245.869 12.6666 245.205 12.6439C245.046 12.6374 243.908 12.6309 243.47 12.6244C241.207 12.5887 237.949 12.5334 235.897 12.4554C230.476 12.2442 226.248 11.9322 220.711 11.643C203.434 10.7428 186.147 10.083 168.841 10.0213C166.728 10.0148 164.61 10.0115 162.497 10.0148C162.425 9.82955 162.266 9.62156 161.916 9.53057C161.589 9.44607 159.245 9.37134 158.34 9.29659C151.645 8.74412 151.843 8.77011 144.477 8.31839C133.321 7.63267 131.623 7.4766 120.019 7.18737C98.9427 6.66089 77.8564 6.7032 56.7766 6.75519C46.3696 6.78444 35.2267 7.48965 24.6608 6.17346C28.1428 5.76398 31.6377 5.465 35.1262 5.12377C47.0375 3.96033 58.9585 3.23883 70.9184 2.73185C99.6073 1.51641 128.342 1.03222 157.021 2.68964C150.916 2.74814 144.814 2.88459 138.71 2.97234C113.859 3.33632 88.7691 3.06336 63.9707 4.95152C63.5265 4.98727 63.1926 5.37722 63.225 5.82245C63.2575 6.27093 63.6497 6.60568 64.0939 6.57318C88.8599 4.68503 113.915 4.96124 138.732 4.59726C147.953 4.46401 157.17 4.22355 166.39 4.29504C169.555 4.32104 172.719 4.43806 175.883 4.47705C176.509 4.4868 178.12 4.6103 178.35 4.5583C178.859 4.44456 178.969 4.06755 179.002 3.88231C179.018 3.77181 179.07 3.13485 178.292 2.90736C172.981 1.35393 163.181 1.42543 158.019 1.11995C128.987 -0.60247 99.8959 -0.121506 70.8503 1.10693C58.8612 1.61716 46.911 2.34192 34.9673 3.50861C30.7948 3.91484 26.6126 4.26582 22.4563 4.80529C21.7851 4.89304 20.2776 5.0198 19.5481 5.15305C19.2434 5.20829 19.0229 5.28624 18.9257 5.34148C18.5463 5.55597 18.4782 5.86796 18.4782 6.0792C18.475 6.24169 18.5431 6.81366 19.3374 6.96966C31.44 9.34529 44.6092 8.41261 56.7798 8.38011C77.8467 8.32812 98.9168 8.28581 119.98 8.81229C131.554 9.10152 133.247 9.25434 144.38 9.94005C145.479 10.005 146.41 10.0635 147.223 10.1122Z" fill="#2C6E63"/>
</g>
</g>
</svg>
